<svg width="48" height="48" viewBox="0 0 48 48" fill="none" xmlns="http://www.w3.org/2000/svg">
<rect x="1.09091" y="1.09091" width="45.8182" height="45.8182" rx="22.9091" stroke="#9B9B9B" stroke-width="2.18182"/>
<g clip-path="url(#clip0_1_526)">
<path d="M24.0091 36.0187C30.6417 36.0187 36.0185 30.6419 36.0185 24.0094C36.0185 17.3768 30.6417 12 24.0091 12C17.3765 12 11.9998 17.3768 11.9998 24.0094C11.9998 30.6419 17.3765 36.0187 24.0091 36.0187Z" fill="#222222"/>
<path fill-rule="evenodd" clip-rule="evenodd" d="M17.4242 23.8783C20.9223 22.3444 23.2606 21.353 24.4391 20.8666C27.7688 19.4823 28.4609 19.2392 28.9098 19.2205C29.0034 19.2205 29.2278 19.2392 29.3775 19.3514C29.4897 19.4449 29.5271 19.5759 29.5458 19.6694C29.5645 19.7629 29.5833 19.9687 29.5645 20.1371C29.3775 22.0264 28.6105 26.6468 28.199 28.7606C28.0306 29.6585 27.6939 29.9578 27.3759 29.9952C26.6838 30.0513 26.1413 29.5276 25.4679 29.0973C24.4204 28.4052 23.8218 27.9749 22.7929 27.3015C21.6144 26.5159 22.3814 26.0856 23.0548 25.3935C23.2232 25.2064 26.3097 22.4192 26.3658 22.1573C26.3658 22.1199 26.3845 22.0077 26.3097 21.9516C26.2348 21.8954 26.1413 21.9141 26.0665 21.9329C25.9543 21.9516 24.2707 23.0739 20.9971 25.2813C20.5108 25.618 20.0805 25.7676 19.6877 25.7676C19.2575 25.7676 18.4344 25.5244 17.8171 25.3187C17.0688 25.0755 16.4702 24.9445 16.5264 24.533C16.5638 24.3272 16.8631 24.1028 17.4242 23.8783Z" fill="white"/>
</g>
<defs>
<clipPath id="clip0_1_526">
<rect width="24" height="24" fill="white" transform="translate(11.9998 12)"/>
</clipPath>
</defs>
</svg>
