<svg width="48" height="48" viewBox="0 0 48 48" fill="none" xmlns="http://www.w3.org/2000/svg">
<rect x="1.09091" y="1.09091" width="45.8182" height="45.8182" rx="22.9091" stroke="#9B9B9B" stroke-width="2.18182"/>
<g clip-path="url(#clip0_1_516)">
<path d="M14.4406 32.4H18.269V23.1429L12.7998 19.0286V30.7607C12.7998 31.6607 13.5398 32.4 14.4406 32.4Z" fill="#4285F4"/>
<path d="M31.3628 32.4H35.1912C36.092 32.4 36.832 31.6607 36.832 30.7607V19.0286L31.3628 23.1107" fill="#34A853"/>
<path d="M31.3628 16.0392V23.1428L36.832 19.0606V16.8428C36.832 14.8178 34.5156 13.6606 32.907 14.8821" fill="#FBBC04"/>
<path d="M18.269 23.1429V16.0393L24.832 20.9572L31.3629 16.0393V23.1429L24.7999 28.0286" fill="#EA4335"/>
<path d="M12.7998 16.8429V19.0286L18.269 23.1107V16.0393L16.7247 14.8822C15.1162 13.6929 12.7998 14.85 12.7998 16.8429Z" fill="#C5221F"/>
</g>
<defs>
<clipPath id="clip0_1_516">
<rect width="24" height="18" fill="white" transform="translate(12.7998 14.3999)"/>
</clipPath>
</defs>
</svg>
