<svg width="300" height="300" viewBox="0 0 300 300" fill="none" xmlns="http://www.w3.org/2000/svg">
<g clip-path="url(#clip0_0_834)">
<rect width="300" height="300" rx="48" fill="#F1A180"/>
<path d="M54 142.621C54 126.325 54 118.177 56.9288 111.851C60.0799 105.046 65.5456 99.5799 72.3515 96.4288C78.6773 93.5 86.8252 93.5 103.121 93.5H174L163.805 117.236H90.3956C85.9644 117.236 83.7488 117.236 82.0563 118.099C80.5676 118.857 79.3572 120.068 78.5986 121.556C77.7363 123.249 77.7363 125.464 77.7363 129.896V155.346C77.7363 159.777 77.7363 161.993 78.5986 163.685C79.3572 165.174 80.5676 166.385 82.0563 167.143C83.7488 168.005 85.9644 168.005 90.3956 168.005H142.168L132.132 191.742H103.121C86.8252 191.742 78.6773 191.742 72.3515 188.813C65.5456 185.662 60.0799 180.196 56.9288 173.39C54 167.064 54 158.917 54 142.621Z" fill="#B7604D"/>
<path d="M246 156.621C246 172.917 246 181.064 243.071 187.39C239.92 194.196 234.454 199.662 227.649 202.813C221.323 205.742 213.175 205.742 196.879 205.742L126 205.742L136.195 182.005H209.604C214.036 182.005 216.251 182.005 217.944 181.143C219.432 180.385 220.643 179.174 221.401 177.685C222.264 175.993 222.264 173.777 222.264 169.346V143.896C222.264 139.464 222.264 137.249 221.401 135.556C220.643 134.068 219.432 132.857 217.944 132.099C216.251 131.236 214.036 131.236 209.604 131.236H157.832L167.868 107.5L196.879 107.5C213.175 107.5 221.323 107.5 227.649 110.429C234.454 113.58 239.92 119.046 243.071 125.851C246 132.177 246 140.325 246 156.621Z" fill="#B7604D"/>
</g>
<defs>
<clipPath id="clip0_0_834">
<rect width="300" height="300" fill="white"/>
</clipPath>
</defs>
</svg>
