<svg width="25" height="24" viewBox="0 0 25 24" fill="none" xmlns="http://www.w3.org/2000/svg">
<g clip-path="url(#clip0_1_510)">
<path d="M20.1225 18.5228H17.0406V13.6962C17.0406 12.5453 17.02 11.0637 15.4377 11.0637C13.8325 11.0637 13.5869 12.3177 13.5869 13.6124V18.5225H10.505V8.59711H13.4636V9.95352H13.5051C13.8011 9.44725 14.229 9.03077 14.7431 8.74843C15.2571 8.46609 15.8381 8.32848 16.4242 8.35023C19.5479 8.35023 20.1238 10.4049 20.1238 13.0779L20.1225 18.5228ZM7.02758 7.24038C6.67385 7.24045 6.32804 7.13562 6.03389 6.93914C5.73975 6.74267 5.51048 6.46338 5.37506 6.13659C5.23963 5.8098 5.20414 5.4502 5.27309 5.10324C5.34203 4.75629 5.51232 4.43757 5.7624 4.1874C6.01247 3.93722 6.33112 3.76682 6.67804 3.69775C7.02495 3.62868 7.38455 3.66403 7.71138 3.79934C8.0382 3.93465 8.31756 4.16384 8.51414 4.45793C8.71071 4.75202 8.81567 5.09779 8.81573 5.45153C8.81577 5.68641 8.76955 5.91899 8.67971 6.136C8.58987 6.35301 8.45818 6.5502 8.29213 6.71631C8.12609 6.88242 7.92894 7.0142 7.71197 7.10412C7.495 7.19404 7.26244 7.24034 7.02758 7.24038ZM8.56853 18.5228H5.48341V8.59711H8.56853V18.5228ZM21.659 0.801222H3.93476C3.53247 0.796682 3.14482 0.952046 2.85702 1.23317C2.56922 1.5143 2.40481 1.89819 2.3999 2.30049V20.0988C2.40464 20.5013 2.56895 20.8855 2.85674 21.1669C3.14453 21.4483 3.53227 21.604 3.93476 21.5997H21.659C22.0622 21.6047 22.4511 21.4495 22.74 21.1681C23.0289 20.8867 23.1943 20.5021 23.1999 20.0988V2.29921C23.1942 1.89611 23.0286 1.51178 22.7397 1.23066C22.4508 0.949541 22.062 0.794621 21.659 0.799937" fill="#0A66C2"/>
</g>
<defs>
<clipPath id="clip0_1_510">
<rect width="24" height="22.4" fill="white" transform="translate(0.799805 0.800049)"/>
</clipPath>
</defs>
</svg>
