<svg width="24" height="24" viewBox="0 0 24 24" fill="none" xmlns="http://www.w3.org/2000/svg">
<g clip-path="url(#clip0_1_514)">
<path fill-rule="evenodd" clip-rule="evenodd" d="M11.9669 0.800049C5.79206 0.800049 0.800293 5.93338 0.800293 12.284C0.800293 17.3604 3.99869 21.6575 8.43572 23.1783C8.99046 23.2927 9.19366 22.9312 9.19366 22.6272C9.19366 22.361 9.17538 21.4484 9.17538 20.4976C6.06909 21.1822 5.42224 19.1286 5.42224 19.1286C4.92304 17.7977 4.18338 17.4556 4.18338 17.4556C3.16669 16.7521 4.25744 16.7521 4.25744 16.7521C5.38521 16.8282 5.97698 17.9309 5.97698 17.9309C6.97515 19.68 8.58361 19.1858 9.23069 18.8815C9.32304 18.14 9.61904 17.6266 9.93332 17.3415C7.45584 17.0753 4.84921 16.0866 4.84921 11.6755C4.84921 10.4206 5.29264 9.39395 5.99526 8.59548C5.88441 8.31035 5.49606 7.13132 6.10635 5.55328C6.10635 5.55328 7.04921 5.24902 9.17515 6.73208C10.0853 6.4807 11.024 6.35282 11.9669 6.35175C12.9098 6.35175 13.8709 6.48498 14.7585 6.73208C16.8846 5.24902 17.8275 5.55328 17.8275 5.55328C18.4378 7.13132 18.0492 8.31035 17.9383 8.59548C18.6595 9.39395 19.0846 10.4206 19.0846 11.6755C19.0846 16.0866 16.478 17.0561 13.982 17.3415C14.3889 17.7027 14.74 18.3871 14.74 19.4709C14.74 21.0109 14.7217 22.2469 14.7217 22.627C14.7217 22.9312 14.9251 23.2927 15.4796 23.1786C19.9166 21.6572 23.115 17.3604 23.115 12.284C23.1333 5.93338 18.1233 0.800049 11.9669 0.800049Z" fill="#8A4DE6"/>
</g>
<defs>
<clipPath id="clip0_1_514">
<rect width="22.4" height="22.4" fill="white" transform="translate(0.800293 0.800049)"/>
</clipPath>
</defs>
</svg>
